<svg width="20" height="23" viewBox="0 0 20 23" fill="none" xmlns="http://www.w3.org/2000/svg">
<path fill-rule="evenodd" clip-rule="evenodd" d="M9.77034 22.2928C8.61927 22.2928 7.46834 22.2969 6.31737 22.2906C5.90651 22.2885 5.49599 22.265 5.10001 22.1308C3.5717 21.6134 2.78337 20.4852 2.54697 18.9497C2.41592 18.0983 2.37732 17.2323 2.30711 16.3721C2.15686 14.5289 2.01211 12.6851 1.86689 10.8414C1.76335 9.53025 1.66228 8.219 1.5606 6.90775C1.54801 6.74375 1.54158 6.57937 1.5262 6.41573C1.50233 6.16152 1.3917 6.03542 1.15809 6.0025C0.955115 5.97407 0.747521 5.97146 0.547665 5.92945C0.19709 5.85593 -0.039361 5.46802 0.00543985 5.07255C0.0427816 4.74132 0.30809 4.46235 0.650273 4.42594C0.935348 4.39573 1.22355 4.38268 1.51053 4.38114C2.53825 4.37583 3.56596 4.38128 4.59377 4.37681C4.83936 4.37569 5.08527 4.35574 5.33049 4.33676C5.48685 4.32459 5.65128 4.16781 5.66167 4.02166C5.68232 3.73528 5.68755 3.44765 5.71165 3.16168C5.81799 1.90484 6.44627 1.00672 7.59044 0.480022C7.84969 0.360677 8.12609 0.269957 8.40301 0.199329C9.54489 -0.0918529 10.6859 -0.0651403 11.8087 0.28688C12.8932 0.626918 13.6677 1.30951 14.033 2.41364C14.1645 2.81116 14.1684 3.2215 14.1809 3.63235C14.1845 3.75528 14.1941 3.87831 14.2055 4.00087C14.2184 4.14012 14.3864 4.32035 14.5239 4.33187C14.769 4.35243 15.0146 4.37541 15.2602 4.37653C16.329 4.38156 17.3979 4.37639 18.4668 4.38133C18.7538 4.38259 19.0422 4.39205 19.3272 4.42385C19.6419 4.45876 19.8405 4.65867 19.9512 4.94775C20.0691 5.25627 19.9632 5.52018 19.7435 5.72885C19.6314 5.83533 19.4703 5.90465 19.3192 5.95304C19.0164 6.05033 18.6559 5.88227 18.3864 6.14968C18.3364 6.47177 18.2686 6.79228 18.2397 7.11623C18.1114 8.54883 17.9878 9.98204 17.8745 11.4159C17.6868 13.7923 17.5072 16.1693 17.3258 18.546C17.2817 19.1255 17.1482 19.6821 16.9068 20.2104C16.3723 21.3804 15.4758 22.0969 14.202 22.301C13.7585 22.3721 13.3029 22.3937 12.853 22.392C11.8255 22.3882 10.7979 22.3562 9.77034 22.3357C9.77034 22.3214 9.77034 22.3072 9.77034 22.2928ZM9.97947 5.9853C9.97947 5.98507 9.97947 5.9846 9.97947 5.98432C8.17154 5.98432 6.36357 5.98311 4.55554 5.98544C4.2273 5.98591 3.89878 5.99677 3.57081 6.01076C3.36611 6.01952 3.1952 6.2073 3.20686 6.42287C3.25273 7.28439 3.29455 8.14628 3.36084 9.0063C3.47795 10.5216 3.61771 12.0352 3.73673 13.5505C3.85244 15.0248 3.94605 16.5009 4.06735 17.9748C4.10096 18.3821 4.16259 18.7947 4.27569 19.1863C4.4983 19.9567 5.00574 20.4636 5.81127 20.6142C6.13196 20.674 6.46268 20.7002 6.78952 20.7041C8.88481 20.7291 10.9805 20.7444 13.076 20.76C13.3221 20.7618 13.5721 20.7694 13.8141 20.733C14.505 20.629 15.0346 20.2818 15.3672 19.651C15.5633 19.2787 15.6383 18.8802 15.6727 18.4673C15.8125 16.7889 15.958 15.1109 16.0964 13.4324C16.2418 11.6719 16.385 9.91136 16.5217 8.15033C16.5664 7.5772 16.5919 7.00234 16.6177 6.4279C16.6278 6.20292 16.4664 6.02269 16.2648 6.00959C16.101 5.99891 15.937 5.98647 15.7729 5.98637C13.8418 5.98474 11.9107 5.9853 9.97947 5.9853ZM9.85738 4.37676C10.5128 4.37676 11.1685 4.37331 11.824 4.37769C12.4718 4.38198 12.6194 4.19206 12.5741 3.56564C12.5595 3.3628 12.5183 3.16071 12.4742 2.9615C12.38 2.53443 12.1206 2.22418 11.7395 2.02786C11.5233 1.91645 11.291 1.81845 11.0545 1.76834C10.3251 1.6138 9.58993 1.62079 8.85614 1.7557C8.52809 1.81593 8.21742 1.93332 7.96302 2.14096C7.7778 2.29215 7.59827 2.48436 7.49673 2.6968C7.29996 3.10938 7.25306 3.5606 7.31734 4.01849C7.33473 4.14353 7.51767 4.32977 7.64713 4.3438C7.76904 4.35704 7.89141 4.37434 8.01369 4.37499C8.62836 4.37807 9.24285 4.37629 9.85738 4.37676Z" fill="#9586A8"/>
<path fill-rule="evenodd" clip-rule="evenodd" d="M13.3569 9.69585C13.2247 11.4514 13.1036 13.0084 12.9918 14.566C12.9361 15.3448 12.9059 16.1256 12.8452 16.9041C12.8264 17.1458 12.7661 17.3896 12.6881 17.62C12.5862 17.9205 12.2262 18.0981 11.883 18.052C11.5603 18.0087 11.2483 17.7202 11.227 17.4099C11.2075 17.1244 11.2053 16.8351 11.2262 16.5498C11.3401 14.9924 11.4672 13.4359 11.582 11.8785C11.6304 11.2227 11.6541 10.5652 11.7 9.90913C11.72 9.62322 11.7489 9.3353 11.8071 9.05526C11.8857 8.67788 12.2515 8.41747 12.6218 8.44147C12.9806 8.46478 13.3334 8.79941 13.3542 9.15624C13.3686 9.40159 13.3569 9.64844 13.3569 9.69585Z" fill="#9586A8"/>
<path fill-rule="evenodd" clip-rule="evenodd" d="M6.83906 12.9484C6.76149 11.7601 6.68172 10.5718 6.60951 9.38303C6.60214 9.26285 6.633 9.13903 6.65631 9.0188C6.71603 8.70906 7.0329 8.45186 7.36506 8.43709C7.67773 8.42315 8.05087 8.66995 8.13236 8.95265C8.16625 9.06999 8.19609 9.19143 8.20485 9.31268C8.3794 11.7291 8.55259 14.1457 8.71939 16.5627C8.73915 16.848 8.73295 17.1367 8.71612 17.4225C8.69738 17.739 8.39026 18.0242 8.06355 18.0567C7.67028 18.0959 7.27732 17.8499 7.2315 17.4874C7.1391 16.7548 7.06516 16.0192 7.00787 15.283C6.94731 14.5052 6.91509 13.7254 6.87029 12.9465C6.8599 12.9471 6.84946 12.9478 6.83906 12.9484Z" fill="#9586A8"/>
</svg>
