<svg width="96" height="96" viewBox="0 0 96 96" fill="none" xmlns="http://www.w3.org/2000/svg">
<path fill-rule="evenodd" clip-rule="evenodd" d="M83.9689 95.5H12.0309C5.67541 95.5 0.503906 90.3242 0.503906 83.973V12.028C0.503906 5.67638 5.67191 0.500977 12.0309 0.500977H66.6359C67.425 0.500977 68.1281 0.821287 68.6359 1.33692L94.6829 27.3879C95.2298 27.9348 95.4993 28.6496 95.4993 29.3645V83.9735C95.4993 90.3251 90.3274 95.5005 83.9723 95.5005L83.9689 95.5ZM58.6639 6.08998V26.293C58.6639 27.836 57.4139 29.0899 55.867 29.0899L22.445 29.086C20.9059 29.086 19.6559 27.836 19.6559 26.2891V6.09007H12.0309C8.76141 6.09007 6.09341 8.76197 6.09341 12.0276V83.9766C6.09341 87.2422 8.76141 89.9141 12.0309 89.9141H19.6559V58.6991C19.6559 57.1561 20.9059 55.9061 22.445 55.9061H70.109C71.6559 55.9061 72.9059 57.1561 72.9059 58.6991V89.9141H83.9679C87.2374 89.9141 89.9054 87.2422 89.9054 83.9766V30.5236L65.4714 6.09357H58.6628L58.6639 6.08998ZM25.2419 6.08998V23.5H53.0659L53.0698 6.08998H25.2419ZM67.3199 61.492L25.2419 61.4881V89.9101H67.3199V61.4881V61.492Z" fill="black"/>
</svg>
