<svg width="20" height="21" viewBox="0 0 20 21" fill="none" xmlns="http://www.w3.org/2000/svg">
<path d="M15.2317 5.19704C15.0937 5.06692 14.9097 4.99694 14.7201 5.00251C14.5305 5.00807 14.3509 5.08871 14.2208 5.2267C14.0907 5.36468 14.0207 5.5487 14.0263 5.73828C14.0318 5.92786 14.1125 6.10746 14.2505 6.23758L17.4864 9.2906H6.88019C6.69065 9.2906 6.50887 9.36589 6.37485 9.49992C6.24082 9.63394 6.16553 9.81572 6.16553 10.0053C6.16553 10.1948 6.24082 10.3766 6.37485 10.5106C6.50887 10.6446 6.69065 10.7199 6.88019 10.7199H17.4864L14.2505 13.7729C14.1821 13.8374 14.1272 13.9146 14.0887 14.0003C14.0502 14.086 14.029 14.1784 14.0263 14.2722C14.0235 14.3661 14.0393 14.4596 14.0726 14.5474C14.106 14.6351 14.1564 14.7155 14.2208 14.7838C14.2852 14.8521 14.3625 14.9071 14.4481 14.9456C14.5338 14.984 14.6262 15.0053 14.7201 15.008C14.814 15.0108 14.9075 14.995 14.9952 14.9616C15.083 14.9282 15.1634 14.8779 15.2317 14.8135L19.7755 10.5255C19.8464 10.4587 19.903 10.3781 19.9416 10.2886C19.9802 10.1991 20.0002 10.1027 20.0002 10.0053C20.0002 9.90779 19.9802 9.81137 19.9416 9.72189C19.903 9.63242 19.8464 9.5518 19.7755 9.48498L15.2317 5.19704Z" fill="#D9D0E3"/>
<path d="M8.89606 18.5811H1.42932V1.42932H8.89606C9.0856 1.42932 9.26738 1.35402 9.4014 1.22C9.53542 1.08597 9.61072 0.904197 9.61072 0.714658C9.61072 0.525119 9.53542 0.343343 9.4014 0.209318C9.26738 0.0752941 9.0856 0 8.89606 0H0.714658C0.525119 0 0.343343 0.0752941 0.209318 0.209318C0.0752941 0.343343 0 0.525119 0 0.714658V19.2958C0 19.4853 0.0752941 19.6671 0.209318 19.8011C0.343343 19.9351 0.525119 20.0104 0.714658 20.0104H8.89606C9.0856 20.0104 9.26738 19.9351 9.4014 19.8011C9.53542 19.6671 9.61072 19.4853 9.61072 19.2958C9.61072 19.1062 9.53542 18.9244 9.4014 18.7904C9.26738 18.6564 9.0856 18.5811 8.89606 18.5811Z" fill="#D9D0E3"/>
</svg>
