<svg width="20" height="20" viewBox="0 0 20 20" fill="none" xmlns="http://www.w3.org/2000/svg">
<path fill-rule="evenodd" clip-rule="evenodd" d="M9.92538 19.9484C7.92641 19.9484 5.92749 19.9492 3.92844 19.9475C3.58911 19.9472 3.24948 19.9443 2.91067 19.929C1.49974 19.8655 0.089067 18.5962 0.0119075 16.9644C-0.00228467 16.6633 0.000536649 16.3611 0.000365658 16.0595C-0.000147313 12.0237 -0.000147326 7.98812 0.000536636 3.95236C0.000622131 3.65069 0.000365613 3.34872 0.0136601 3.04748C0.0738488 1.67254 1.19815 0.367584 2.59797 0.150341C2.93187 0.0984026 3.27248 0.0652732 3.61006 0.0641617C5.9484 0.0567236 8.28691 0.0574932 10.6252 0.0639053C10.8862 0.0646747 11.1508 0.0995567 11.4069 0.151752C11.6875 0.208862 11.8814 0.523057 11.872 0.846657C11.8633 1.14999 11.623 1.4762 11.3518 1.50706C11.0534 1.54096 10.7511 1.55289 10.4505 1.55349C8.33842 1.55716 6.22634 1.55524 4.11414 1.55593C3.81247 1.55601 3.5099 1.54725 3.20909 1.56409C2.30395 1.615 1.64495 2.19885 1.51218 3.09048C1.46268 3.42378 1.46836 3.76692 1.46785 4.10556C1.46486 7.16061 1.46601 10.2157 1.4661 13.2707C1.4661 14.2514 1.46285 15.232 1.469 16.2126C1.47058 16.4755 1.47969 16.7417 1.52201 17.0005C1.6479 17.7701 2.18729 18.317 3.04105 18.4618C3.26214 18.4992 3.4925 18.4877 3.71851 18.4878C7.86738 18.4889 12.0161 18.4891 16.1649 18.4874C16.3908 18.4874 16.6197 18.4912 16.842 18.4583C17.7317 18.3267 18.3295 17.667 18.3779 16.769C18.3942 16.468 18.3868 16.1656 18.387 15.8639C18.3877 13.7518 18.3857 11.6397 18.3894 9.5275C18.3899 9.22669 18.3999 8.92412 18.4338 8.62553C18.4647 8.3525 18.7839 8.10336 19.0803 8.08443C19.4068 8.06348 19.7006 8.23704 19.8003 8.51733C19.8378 8.62288 19.8759 8.73239 19.8858 8.84268C19.9027 9.03005 19.9013 9.21942 19.9013 9.40794C19.9019 11.7085 19.9001 14.0094 19.903 16.31C19.9036 16.7267 19.8676 17.135 19.7705 17.5428C19.4381 18.9378 18.1161 19.8978 16.9403 19.9304C16.601 19.9398 16.2616 19.9473 15.9223 19.9476C13.9233 19.9492 11.9243 19.9484 9.92538 19.9484Z" fill="#9586A8"/>
<path fill-rule="evenodd" clip-rule="evenodd" d="M5.84912 13.0754C5.89195 12.318 5.96843 11.5714 6.13467 10.8314C6.30408 10.0771 6.63239 9.42486 7.16797 8.8582C9.55025 6.33835 11.9195 3.80637 14.2948 1.28003C14.4496 1.11545 14.6058 0.949633 14.7785 0.80506C14.98 0.636336 15.1896 0.472612 15.4147 0.337744C16.2112 -0.139576 17.0224 -0.121109 17.7348 0.457993C18.3749 0.978487 18.9742 1.56285 19.5187 2.18303C20.0944 2.83921 20.1332 3.6211 19.7434 4.40116C19.6101 4.66782 19.4312 4.91631 19.2446 5.1504C19.0336 5.41492 18.7932 5.65636 18.561 5.90348C16.3675 8.23866 14.152 10.5537 11.9896 12.9171C11.1815 13.8002 10.2348 14.2952 9.07353 14.482C8.3272 14.6022 7.58339 14.7056 6.82753 14.7044C6.67808 14.7043 6.52338 14.6953 6.38017 14.657C6.14733 14.5945 5.96407 14.4352 5.93017 14.1983C5.87738 13.8277 5.8737 13.4501 5.84912 13.0754ZM16.3657 6.0077C16.307 5.88365 16.2832 5.7628 16.2108 5.69154C15.5935 5.08504 14.9676 4.48725 14.3431 3.8881C14.3171 3.86305 14.2802 3.83959 14.2457 3.83493C14.1752 3.82509 14.0818 3.79902 14.035 3.83223C13.8835 3.93953 13.7371 4.05935 13.61 4.19409C12.3695 5.50781 11.1332 6.82551 9.89634 8.14256C9.38101 8.69127 8.88065 9.25507 8.3475 9.78582C7.95919 10.1725 7.69244 10.6176 7.59844 11.1469C7.50008 11.7008 7.45199 12.2638 7.38761 12.8235C7.37115 12.9668 7.51829 13.1127 7.66098 13.1197C8.19259 13.1456 8.70428 13.0435 9.22037 12.9231C9.82794 12.7814 10.3235 12.5028 10.7523 12.0405C12.4927 10.1637 14.2538 8.30607 16.0054 6.43962C16.1324 6.3042 16.2441 6.15433 16.3657 6.0077ZM15.1092 2.83711C15.4283 3.21782 15.824 3.56224 16.1996 3.92542C16.5223 4.23752 16.8542 4.5406 17.1897 4.83864C17.2341 4.87814 17.3511 4.89985 17.3911 4.87062C17.8484 4.5353 18.2466 4.14566 18.4423 3.59477C18.5119 3.39933 18.4468 3.202 18.3187 3.07244C17.8458 2.59371 17.3578 2.12938 16.8626 1.67369C16.6697 1.49629 16.3466 1.50112 16.1279 1.65356C15.727 1.93308 15.3615 2.24929 15.1265 2.68959C15.1109 2.71896 15.1175 2.76004 15.1092 2.83711Z" fill="#9586A8"/>
</svg>
