<svg width="54" height="32" viewBox="0 0 54 32" fill="none" xmlns="http://www.w3.org/2000/svg">
<path d="M52.7923 4.57171C52.1243 4.57171 51.5838 5.03845 51.5817 5.611V26.5688C44.4272 25.6618 37.1215 26.3477 30.3626 28.5624C31.637 27.3171 33.1794 26.2948 34.9065 25.5541C41.1952 22.8746 47.4153 25.0949 48.5999 25.5654H48.5977C48.9734 25.7166 49.4107 25.6901 49.7579 25.4993C50.105 25.3084 50.316 24.9777 50.316 24.6225V2.44367C50.316 2.0374 50.0435 1.67079 49.615 1.49887C48.2571 0.956541 41.1073 -1.59068 33.8319 1.51021V1.5121C31.0634 2.71014 28.7079 4.51094 27.0004 6.73704C25.2931 4.51103 22.9376 2.71024 20.1689 1.5121C12.8935 -1.58882 5.74361 0.958449 4.388 1.49887C3.95953 1.67083 3.68707 2.03742 3.68707 2.44367V24.6244V24.6225C3.68707 24.9778 3.898 25.3085 4.24517 25.4993C4.59234 25.6902 5.02957 25.7166 5.40532 25.5655C6.58747 25.0931 12.81 22.8746 19.0988 25.5541H19.0966C20.8236 26.2948 22.3661 27.3171 23.6405 28.5624C16.8815 26.3478 9.57579 25.6619 2.41913 26.5689V5.61104C2.41913 5.03659 1.87641 4.57176 1.20847 4.57176C0.540526 4.57176 0 5.03661 0 5.61104V27.7918C0 28.0998 0.158202 28.3927 0.432859 28.5911C0.707515 28.7876 1.07006 28.8707 1.42381 28.8159C9.93608 27.4856 18.7206 28.5646 26.4594 31.8904C26.466 31.8942 26.4748 31.8942 26.4814 31.898C26.5342 31.9187 26.5869 31.9357 26.6418 31.9509C26.6572 31.9546 26.6748 31.9603 26.6902 31.9641C26.7055 31.9679 26.7077 31.9698 26.7165 31.9717H26.7187C26.811 31.9906 26.9033 32 26.9978 32C27.0901 32 27.1845 31.9906 27.2746 31.9717H27.2812C27.29 31.9717 27.2988 31.966 27.3076 31.9641C27.3164 31.9622 27.3405 31.9546 27.3559 31.9509C27.4109 31.9358 27.4636 31.9187 27.5141 31.898C27.5207 31.8942 27.5295 31.8942 27.5361 31.8904H27.5383C35.2771 28.5628 44.0639 27.4838 52.5762 28.8159C52.9299 28.8707 53.2925 28.7876 53.5671 28.5911C53.8418 28.3927 54 28.0998 54 27.7918V5.61104C54 5.33704 53.8726 5.07249 53.6462 4.87599C53.4199 4.68136 53.1123 4.57175 52.7915 4.57175L52.7923 4.57171ZM34.9043 3.37367C40.3799 1.03998 45.805 2.42127 47.8992 3.1299V23.1014C45.0537 22.2794 39.4814 21.2836 33.8367 23.6929V23.691C31.6724 24.6207 29.7564 25.9264 28.2117 27.5269V9.03475C29.7125 6.60093 32.0503 4.62434 34.9066 3.37347L34.9043 3.37367ZM20.1675 23.691C17.7944 22.6858 15.1819 22.168 12.5344 22.1812C10.3481 22.1907 8.17502 22.5006 6.10278 23.1014V3.12802C8.19459 2.41943 13.6194 1.03998 19.0976 3.37179L19.0954 3.37368C21.9518 4.62271 24.2897 6.5993 25.7925 9.03303V27.5267C24.2478 25.9261 22.3318 24.6204 20.1697 23.6907L20.1675 23.691Z" fill="#6C0EE4"/>
</svg>
