<svg width="24" height="24" viewBox="0 0 24 24" fill="none" xmlns="http://www.w3.org/2000/svg">
<path fill-rule="evenodd" clip-rule="evenodd" d="M7.11081 0.822331C7.11081 0.367406 7.44305 0 7.85194 0H16.1487C20.4842 0 24 3.90067 24 8.71252C24 13.5231 20.4845 17.4241 16.1487 17.4241H2.52851L7.19089 22.5973C7.47977 22.9178 7.47977 23.4381 7.19089 23.7587C6.90089 24.0804 6.43198 24.0804 6.1431 23.7587L0.217495 17.1838C-0.0724984 16.8633 -0.0724984 16.343 0.217495 16.0212L6.1431 9.44635C6.43198 9.12581 6.90089 9.12581 7.19089 9.44635C7.47977 9.76689 7.47977 10.2872 7.19089 10.6089L2.52851 15.7809H16.1487C19.6665 15.7809 22.5189 12.6162 22.5189 8.71274C22.5189 4.80828 19.6667 1.64362 16.1487 1.64362H7.85194C7.44305 1.64362 7.11081 1.27603 7.11081 0.822331Z" fill="black"/>
</svg>
