<svg width="85" height="77" viewBox="0 0 85 77" fill="none" xmlns="http://www.w3.org/2000/svg">
<path fill-rule="evenodd" clip-rule="evenodd" d="M24.9987 2.6055C24.9987 1.1641 26.1667 0 27.6042 0H56.7722C72.0142 0 84.3742 12.359 84.3742 27.605C84.3742 42.847 72.0152 55.207 56.7722 55.207H8.88922L25.2802 71.598C26.2958 72.6136 26.2958 74.2621 25.2802 75.2777C24.2607 76.2972 22.6122 76.2972 21.5966 75.2777L0.764625 54.4457C-0.254875 53.4301 -0.254875 51.7816 0.764625 50.7621L21.5966 29.9301C22.6122 28.9145 24.2607 28.9145 25.2802 29.9301C26.2958 30.9457 26.2958 32.5942 25.2802 33.6137L8.88922 50.0007H56.7722C69.1392 50.0007 79.1672 39.9737 79.1672 27.6057C79.1672 15.2347 69.1402 5.2077 56.7722 5.2077H27.6042C26.1667 5.2077 24.9987 4.043 24.9987 2.6055Z" fill="black"/>
</svg>
